<svg xmlns="http://www.w3.org/2000/svg" width="1440" height="960" viewBox="0 0 1440 960">
  <defs>
    <linearGradient id="g" x1="0" x2="1" y1="0" y2="1">
      <stop offset="0" stop-color="#0f172a"/>
      <stop offset="1" stop-color="#050505"/>
    </linearGradient>
    <radialGradient id="r" cx="75%" cy="20%" r="70%">
      <stop offset="0" stop-color="#7dd3fc" stop-opacity=".45"/>
      <stop offset="1" stop-color="#7dd3fc" stop-opacity="0"/>
    </radialGradient>
  </defs>
  <rect width="1440" height="960" fill="url(#g)"/>
  <rect width="1440" height="960" fill="url(#r)"/>
  <circle cx="1110" cy="300" r="240" fill="#7dd3fc" opacity=".24"/>
  <circle cx="1040" cy="320" r="124" fill="#7dd3fc" opacity=".32"/>
  <path d="M120 700 C 360 520, 560 760, 820 590 S 1180 430, 1320 590" fill="none" stroke="#7dd3fc" stroke-width="5" opacity=".65"/>
  <path d="M120 760 C 380 640, 620 820, 920 690 S 1160 560, 1320 660" fill="none" stroke="#ffffff" stroke-width="2" opacity=".18"/>
  <rect x="120" y="132" width="1200" height="696" rx="42" fill="#ffffff" opacity=".075" stroke="#ffffff" stroke-opacity=".2"/>
  <rect x="170" y="182" width="250" height="52" rx="26" fill="#7dd3fc" opacity=".22"/>
  <text x="198" y="216" fill="#7dd3fc" font-family="Arial, sans-serif" font-size="24" letter-spacing="5">TYPESCRIPT</text>
  <text x="170" y="330" fill="#fff" font-family="Arial, sans-serif" font-size="82" font-weight="700">insider-watch-bot</text>
  <text x="170" y="420" fill="#e4e4e7" font-family="Arial, sans-serif" font-size="34">Product case preview</text>
  <circle cx="1210" cy="230" r="44" fill="#7dd3fc" opacity=".9"/>
</svg>