<svg xmlns="http://www.w3.org/2000/svg" viewBox="0 0 1440 960" fill="none">
  <rect width="1440" height="960" fill="#0f1117"/>
  <!-- Sidebar -->
  <rect x="0" y="0" width="280" height="960" fill="#1a1d27"/>
  <rect x="24" y="32" width="120" height="14" rx="4" fill="#ffffff" opacity="0.15"/>
  <rect x="24" y="72" width="80" height="10" rx="3" fill="#5d6f4f" opacity="0.8"/>
  <rect x="24" y="100" width="180" height="10" rx="3" fill="#ffffff" opacity="0.08"/>
  <rect x="24" y="120" width="160" height="10" rx="3" fill="#ffffff" opacity="0.06"/>
  <rect x="24" y="140" width="170" height="10" rx="3" fill="#ffffff" opacity="0.08"/>
  <rect x="24" y="160" width="140" height="10" rx="3" fill="#ffffff" opacity="0.06"/>
  <rect x="24" y="180" width="180" height="10" rx="3" fill="#ffffff" opacity="0.08"/>
  <rect x="24" y="200" width="155" height="10" rx="3" fill="#5d6f4f" opacity="0.5"/>
  <rect x="24" y="220" width="165" height="10" rx="3" fill="#ffffff" opacity="0.06"/>
  <!-- Main content -->
  <rect x="316" y="32" width="200" height="20" rx="5" fill="#ffffff" opacity="0.15"/>
  <rect x="1280" y="32" width="120" height="20" rx="5" fill="#5d6f4f" opacity="0.7"/>
  <!-- Card grid -->
  <rect x="316" y="80" width="260" height="200" rx="10" fill="#1e2130"/>
  <rect x="336" y="104" width="80" height="80" rx="8" fill="#2a2d3e"/>
  <rect x="432" y="108" width="120" height="12" rx="3" fill="#ffffff" opacity="0.15"/>
  <rect x="432" y="128" width="80" height="8" rx="3" fill="#5d6f4f" opacity="0.6"/>
  <rect x="432" y="144" width="100" height="8" rx="3" fill="#ffffff" opacity="0.08"/>
  <rect x="336" y="200" width="60" height="24" rx="5" fill="#5d6f4f" opacity="0.3"/>
  <rect x="404" y="200" width="60" height="24" rx="5" fill="#2a2d3e"/>

  <rect x="596" y="80" width="260" height="200" rx="10" fill="#1e2130"/>
  <rect x="616" y="104" width="80" height="80" rx="8" fill="#2a2d3e"/>
  <rect x="712" y="108" width="100" height="12" rx="3" fill="#ffffff" opacity="0.15"/>
  <rect x="712" y="128" width="70" height="8" rx="3" fill="#5d6f4f" opacity="0.6"/>
  <rect x="712" y="144" width="110" height="8" rx="3" fill="#ffffff" opacity="0.08"/>
  <rect x="616" y="200" width="60" height="24" rx="5" fill="#5d6f4f" opacity="0.3"/>

  <rect x="876" y="80" width="260" height="200" rx="10" fill="#1e2130"/>
  <rect x="896" y="104" width="80" height="80" rx="8" fill="#2a2d3e"/>
  <rect x="992" y="108" width="115" height="12" rx="3" fill="#ffffff" opacity="0.15"/>
  <rect x="992" y="128" width="85" height="8" rx="3" fill="#5d6f4f" opacity="0.6"/>
  <rect x="992" y="144" width="95" height="8" rx="3" fill="#ffffff" opacity="0.08"/>
  <rect x="896" y="200" width="60" height="24" rx="5" fill="#5d6f4f" opacity="0.3"/>

  <rect x="1156" y="80" width="260" height="200" rx="10" fill="#1e2130"/>
  <rect x="1176" y="104" width="80" height="80" rx="8" fill="#2a2d3e"/>
  <rect x="1272" y="108" width="105" height="12" rx="3" fill="#ffffff" opacity="0.15"/>
  <rect x="1272" y="128" width="75" height="8" rx="3" fill="#5d6f4f" opacity="0.6"/>

  <!-- Second row -->
  <rect x="316" y="308" width="260" height="200" rx="10" fill="#1e2130"/>
  <rect x="336" y="332" width="80" height="80" rx="8" fill="#2a2d3e"/>
  <rect x="432" y="336" width="110" height="12" rx="3" fill="#ffffff" opacity="0.15"/>
  <rect x="432" y="356" width="90" height="8" rx="3" fill="#5d6f4f" opacity="0.6"/>

  <rect x="596" y="308" width="260" height="200" rx="10" fill="#1e2130"/>
  <rect x="616" y="332" width="80" height="80" rx="8" fill="#2a2d3e"/>
  <rect x="712" y="336" width="120" height="12" rx="3" fill="#ffffff" opacity="0.15"/>
  <rect x="712" y="356" width="80" height="8" rx="3" fill="#5d6f4f" opacity="0.6"/>

  <!-- Label -->
  <rect x="316" y="560" width="180" height="14" rx="4" fill="#ffffff" opacity="0.06"/>
  <rect x="316" y="582" width="140" height="10" rx="3" fill="#ffffff" opacity="0.04"/>
</svg>
